<svg xmlns="http://www.w3.org/2000/svg" xmlns:xlink="http://www.w3.org/1999/xlink" width="500" zoomAndPan="magnify" viewBox="0 0 375 374.999991" height="500" preserveAspectRatio="xMidYMid meet" version="1.0"><defs><clipPath id="1a53fdde84"><path d="M 77.359375 183 L 297.859375 183 L 297.859375 291.640625 L 77.359375 291.640625 Z M 77.359375 183 " clip-rule="nonzero"/></clipPath><clipPath id="6985ec332c"><path d="M 77.359375 83.140625 L 297.859375 83.140625 L 297.859375 202 L 77.359375 202 Z M 77.359375 83.140625 " clip-rule="nonzero"/></clipPath></defs><path fill="#0097b2" d="M 182.753906 237.449219 L 192.34375 237.449219 C 196.34375 237.449219 199.574219 234.214844 199.574219 230.21875 L 199.574219 211.691406 L 202.414062 211.691406 C 205.398438 211.691406 207.820312 209.273438 207.820312 206.292969 L 207.820312 197.648438 C 207.820312 194.664062 205.398438 192.242188 202.414062 192.242188 L 172.683594 192.242188 C 169.699219 192.242188 167.28125 194.664062 167.28125 197.648438 L 167.28125 206.292969 C 167.28125 209.273438 169.699219 211.691406 172.683594 211.691406 L 175.519531 211.691406 L 175.519531 230.21875 C 175.519531 234.214844 178.757812 237.449219 182.753906 237.449219 " fill-opacity="1" fill-rule="nonzero"/><g clip-path="url(#1a53fdde84)"><path fill="#0097b2" d="M 206.121094 218.726562 L 206.121094 230.21875 C 206.121094 237.8125 199.941406 243.992188 192.34375 243.992188 L 182.753906 243.992188 C 175.15625 243.992188 168.972656 237.8125 168.972656 230.21875 L 168.972656 218.726562 C 151.410156 216.980469 134.269531 212.742188 117.8125 206.066406 C 103.355469 200.203125 89.835938 192.609375 77.386719 183.378906 L 77.386719 273.535156 C 77.386719 283.464844 85.445312 291.515625 95.378906 291.515625 L 279.71875 291.515625 C 289.65625 291.515625 297.710938 283.464844 297.710938 273.535156 L 297.710938 183.378906 C 285.265625 192.609375 271.742188 200.203125 257.285156 206.066406 C 240.828125 212.742188 223.6875 216.980469 206.121094 218.726562 " fill-opacity="1" fill-rule="nonzero"/></g><g clip-path="url(#6985ec332c)"><path fill="#0097b2" d="M 137.609375 115.519531 C 137.609375 110.492188 141.695312 106.402344 146.722656 106.402344 L 154.851562 106.402344 C 157.472656 110.109375 161.785156 112.53125 166.671875 112.53125 L 208.429688 112.53125 C 213.3125 112.53125 217.625 110.109375 220.25 106.402344 L 228.375 106.402344 C 233.402344 106.402344 237.492188 110.492188 237.492188 115.519531 L 237.492188 138.175781 L 137.609375 138.175781 Z M 279.71875 138.175781 L 254.1875 138.175781 L 254.1875 115.519531 C 254.1875 101.285156 242.605469 89.707031 228.375 89.707031 L 220.25 89.707031 C 217.625 86.003906 213.3125 83.582031 208.429688 83.582031 L 166.671875 83.582031 C 161.785156 83.582031 157.472656 86.003906 154.851562 89.707031 L 146.722656 89.707031 C 132.488281 89.707031 120.910156 101.285156 120.910156 115.519531 L 120.910156 138.175781 L 95.378906 138.175781 C 85.445312 138.175781 77.386719 146.226562 77.386719 156.15625 L 77.386719 162.4375 C 101.238281 183.003906 129.933594 196.292969 160.734375 201.179688 L 160.734375 197.648438 C 160.734375 191.058594 166.09375 185.699219 172.683594 185.699219 L 202.414062 185.699219 C 209.003906 185.699219 214.367188 191.058594 214.367188 197.648438 L 214.367188 201.179688 C 245.167969 196.292969 273.855469 183.003906 297.710938 162.4375 L 297.710938 156.15625 C 297.710938 146.226562 289.65625 138.175781 279.71875 138.175781 " fill-opacity="1" fill-rule="nonzero"/></g></svg>
