<svg xmlns="http://www.w3.org/2000/svg" xmlns:xlink="http://www.w3.org/1999/xlink" width="500" zoomAndPan="magnify" viewBox="0 0 375 374.999991" height="500" preserveAspectRatio="xMidYMid meet" version="1.0"><defs><clipPath id="99e4e8f49b"><path d="M 56.25 101.367188 L 318.75 101.367188 L 318.75 273.867188 L 56.25 273.867188 Z M 56.25 101.367188 " clip-rule="nonzero"/></clipPath></defs><path fill="#0097b2" d="M 112.53125 191.421875 L 112.53125 235.371094 C 112.539062 248.351562 143.503906 262.816406 187.921875 262.816406 C 232.339844 262.816406 263.304688 248.351562 263.3125 235.367188 L 263.3125 184.472656 L 179.800781 221.632812 L 112.53125 191.421875 " fill-opacity="1" fill-rule="nonzero"/><g clip-path="url(#99e4e8f49b)"><path fill="#0097b2" d="M 206.804688 161.484375 C 204.957031 161.484375 203.460938 159.988281 203.460938 158.140625 C 203.460938 156.296875 204.957031 154.800781 206.804688 154.800781 L 291.625 154.800781 C 291.222656 155.433594 290.984375 156.175781 290.984375 156.984375 L 290.984375 161.484375 Z M 318.714844 260.15625 C 315.117188 230.152344 303.402344 216.101562 299.128906 211.882812 L 299.128906 156.984375 C 299.128906 156.175781 298.886719 155.433594 298.484375 154.800781 L 298.488281 154.800781 L 298.484375 154.800781 C 297.761719 153.664062 296.5 152.90625 295.054688 152.90625 C 294.835938 152.90625 294.625 152.9375 294.417969 152.972656 L 179.6875 101.441406 L 56.253906 156.378906 L 179.820312 211.875 L 290.984375 162.402344 L 290.984375 211.882812 C 286.707031 216.101562 274.992188 230.152344 271.394531 260.15625 C 271.382812 260.273438 271.371094 260.390625 271.367188 260.503906 C 271.347656 261.121094 271.398438 264.347656 274.449219 267.5 C 278.332031 271.519531 285.265625 273.558594 295.054688 273.558594 C 304.84375 273.558594 311.773438 271.519531 315.660156 267.503906 C 318.710938 264.347656 318.761719 261.121094 318.742188 260.503906 C 318.738281 260.390625 318.730469 260.273438 318.714844 260.15625 " fill-opacity="1" fill-rule="nonzero"/></g></svg>
