<svg xmlns="http://www.w3.org/2000/svg" xmlns:xlink="http://www.w3.org/1999/xlink" width="500" zoomAndPan="magnify" viewBox="0 0 375 374.999991" height="500" preserveAspectRatio="xMidYMid meet" version="1.0"><defs><clipPath id="0502797bcb"><path d="M 81 76 L 314 76 L 314 299.617188 L 81 299.617188 Z M 81 76 " clip-rule="nonzero"/></clipPath></defs><g clip-path="url(#0502797bcb)"><path fill="#0097b2" d="M 305.214844 163.953125 L 138.414062 163.953125 L 302.75 131.097656 C 307.066406 130.234375 309.875 126.027344 309.003906 121.710938 L 301.191406 82.582031 C 300.347656 78.320312 296.171875 75.445312 291.796875 76.324219 C 62.023438 122.261719 118.121094 111.039062 88.320312 117 C 84.035156 117.855469 81.191406 122.03125 82.0625 126.386719 L 89.882812 165.515625 C 90.066406 166.441406 90.417969 167.289062 90.871094 168.054688 C 90.210938 169.21875 89.730469 170.496094 89.730469 171.933594 L 89.730469 275.683594 C 89.730469 288.886719 100.472656 299.628906 113.675781 299.628906 L 289.253906 299.628906 C 302.453125 299.628906 313.195312 288.886719 313.195312 275.683594 L 313.195312 171.933594 C 313.195312 167.527344 309.628906 163.953125 305.214844 163.953125 Z M 297.234375 203.855469 L 260.632812 203.855469 L 284.574219 179.914062 L 297.234375 179.914062 Z M 204.765625 203.855469 L 228.710938 179.914062 L 262.007812 179.914062 L 238.0625 203.855469 Z M 148.902344 203.855469 L 172.84375 179.914062 L 206.140625 179.914062 L 182.199219 203.855469 Z M 105.691406 203.855469 L 105.691406 179.914062 L 150.273438 179.914062 L 126.332031 203.855469 Z M 174.304688 116.085938 L 202.46875 134.863281 L 169.820312 141.390625 L 141.65625 122.613281 Z M 229.085938 105.132812 L 257.25 123.914062 L 224.601562 130.441406 L 196.433594 111.664062 Z M 291.789062 117.011719 L 279.378906 119.492188 L 251.214844 100.714844 L 287.097656 93.539062 Z M 119.515625 127.042969 L 147.679688 145.820312 L 103.96875 154.558594 L 99.277344 131.089844 Z M 119.515625 127.042969 " fill-opacity="1" fill-rule="nonzero"/></g></svg>
