<svg xmlns="http://www.w3.org/2000/svg" xmlns:xlink="http://www.w3.org/1999/xlink" width="500" zoomAndPan="magnify" viewBox="0 0 375 374.999991" height="500" preserveAspectRatio="xMidYMid meet" version="1.0"><defs><clipPath id="6476c04fce"><path d="M 92 67.671875 L 283 67.671875 L 283 307.671875 L 92 307.671875 Z M 92 67.671875 " clip-rule="nonzero"/></clipPath></defs><g clip-path="url(#6476c04fce)"><path fill="#0097b2" d="M 183.429688 180.9375 L 191.554688 180.9375 L 191.554688 188.425781 C 200.632812 189.515625 206.511719 194.65625 209.183594 203.839844 L 197.992188 208.429688 C 195.816406 202.132812 192.4375 198.980469 187.863281 198.980469 C 185.578125 198.980469 183.726562 199.6875 182.320312 201.09375 C 180.945312 202.5 180.261719 204.207031 180.261719 206.214844 C 180.261719 208.253906 180.9375 209.820312 182.269531 210.910156 C 183.609375 212 186.472656 213.355469 190.871094 214.972656 C 195.691406 216.730469 199.476562 218.402344 202.21875 219.984375 C 204.964844 221.53125 207.140625 223.699219 208.761719 226.476562 C 210.414062 229.222656 211.238281 232.441406 211.238281 236.136719 C 211.238281 241.800781 209.554688 246.53125 206.171875 250.332031 C 202.796875 254.097656 197.921875 256.3125 191.554688 256.980469 L 191.554688 266.695312 L 183.429688 266.695312 L 183.429688 257.035156 C 172.804688 255.945312 166.226562 249.769531 163.691406 238.511719 L 176.253906 235.238281 C 177.414062 242.308594 181.261719 245.847656 187.808594 245.847656 C 190.871094 245.847656 193.121094 245.089844 194.566406 243.578125 C 196.007812 242.0625 196.730469 240.230469 196.730469 238.085938 C 196.730469 235.871094 196.003906 234.199219 194.566406 233.074219 C 193.121094 231.914062 189.921875 230.453125 184.960938 228.695312 C 180.492188 227.144531 176.992188 225.613281 174.460938 224.101562 C 171.960938 222.589844 169.917969 220.480469 168.335938 217.769531 C 166.785156 215.023438 166.015625 211.84375 166.015625 208.21875 C 166.015625 203.46875 167.402344 199.195312 170.183594 195.394531 C 172.996094 191.597656 177.414062 189.273438 183.429688 188.425781 Z M 154.351562 133 C 153.632812 135.328125 152.632812 137.582031 151.421875 139.6875 C 148.429688 144.882812 144.304688 149.320312 140.152344 153.644531 C 127.261719 167.082031 113.617188 180.164062 104.324219 196.300781 C 96.558594 209.796875 92.066406 225.34375 92.664062 240.902344 C 93.265625 256.460938 99.15625 271.96875 109.933594 283.207031 C 123.128906 296.972656 142.355469 303.394531 161.265625 305.828125 C 169.953125 306.949219 178.707031 307.316406 187.46875 307.320312 C 196.230469 307.316406 204.980469 306.949219 213.667969 305.828125 C 232.578125 303.394531 251.808594 296.972656 265 283.207031 C 275.773438 271.96875 281.667969 256.460938 282.269531 240.902344 C 282.867188 225.34375 278.375 209.796875 270.609375 196.300781 C 261.316406 180.164062 247.671875 167.082031 234.78125 153.644531 C 230.628906 149.320312 226.503906 144.882812 223.511719 139.6875 C 222.304688 137.582031 221.300781 135.328125 220.582031 133 Z M 187.238281 67.671875 C 185.332031 67.671875 183.375 68.042969 181.664062 68.945312 C 179.953125 69.84375 178.453125 71.09375 177.046875 72.417969 C 174.230469 75.070312 171.628906 78.140625 168.070312 79.652344 C 165.007812 80.953125 161.429688 80.929688 158.339844 79.726562 C 155.75 78.691406 153.558594 76.886719 151.1875 75.421875 C 150 74.683594 148.753906 74.03125 147.425781 73.613281 C 146.09375 73.199219 144.667969 73.027344 143.296875 73.265625 C 142.035156 73.488281 140.84375 74.046875 139.839844 74.84375 C 138.835938 75.636719 138.019531 76.664062 137.417969 77.789062 C 136.214844 80.050781 135.890625 82.699219 136.101562 85.25 C 136.390625 88.777344 137.671875 92.167969 139.378906 95.269531 C 141.089844 98.367188 143.230469 101.207031 145.386719 104.011719 C 147.546875 106.816406 149.730469 109.613281 151.542969 112.652344 C 153.355469 115.695312 154.789062 119.007812 155.316406 122.507812 C 155.46875 123.535156 155.515625 124.5625 155.515625 125.597656 L 219.414062 125.597656 C 219.414062 124.5625 219.488281 123.535156 219.613281 122.507812 C 220.140625 119.007812 221.574219 115.695312 223.382812 112.652344 C 225.195312 109.613281 227.382812 106.816406 229.542969 104.011719 C 231.695312 101.207031 233.839844 98.367188 235.550781 95.269531 C 237.257812 92.167969 238.53125 88.777344 238.828125 85.25 C 239.039062 82.699219 238.714844 80.050781 237.511719 77.789062 C 236.910156 76.664062 236.09375 75.636719 235.089844 74.84375 C 234.085938 74.046875 232.894531 73.484375 231.632812 73.265625 C 230.261719 73.027344 228.835938 73.191406 227.503906 73.613281 C 226.171875 74.03125 224.925781 74.6875 223.742188 75.421875 C 221.367188 76.886719 219.179688 78.691406 216.589844 79.726562 C 213.5 80.960938 209.921875 80.984375 206.859375 79.652344 C 203.300781 78.140625 200.695312 75.070312 197.882812 72.417969 C 196.476562 71.09375 194.976562 69.84375 193.265625 68.945312 C 191.140625 68.054688 189.289062 67.65625 187.234375 67.671875 L 187.238281 67.671875 " fill-opacity="1" fill-rule="nonzero"/></g></svg>
