<svg xmlns="http://www.w3.org/2000/svg" xmlns:xlink="http://www.w3.org/1999/xlink" width="500" zoomAndPan="magnify" viewBox="0 0 375 374.999991" height="500" preserveAspectRatio="xMidYMid meet" version="1.0"><defs><clipPath id="bba751e233"><path d="M 67 94 L 309.71875 94 L 309.71875 282 L 67 282 Z M 67 94 " clip-rule="nonzero"/></clipPath></defs><rect x="-37.5" width="450" fill="#ffffff" y="-37.499999" height="449.999989" fill-opacity="1"/><rect x="-37.5" width="450" fill="#ffffff" y="-37.499999" height="449.999989" fill-opacity="1"/><g clip-path="url(#bba751e233)"><path fill="#0097b2" d="M 175.421875 133.8125 C 177.816406 129.140625 179.496094 125.421875 181.550781 121.921875 C 189.558594 108.289062 200.445312 98.105469 216.574219 95.476562 C 229.722656 93.328125 242.449219 95.558594 254.300781 101.835938 C 269.953125 110.121094 278.957031 123.449219 282.511719 140.488281 C 285.351562 154.070312 283.804688 167.476562 279.449219 180.582031 C 278.960938 182.058594 278.300781 183.476562 277.632812 185.140625 C 258.472656 185.140625 239.441406 185.140625 219.722656 185.140625 C 218.363281 182.617188 216.75 179.75 215.25 176.824219 C 213.089844 172.632812 210.933594 168.4375 208.917969 164.179688 C 207.199219 160.550781 204.824219 157.65625 200.519531 157.929688 C 196.332031 158.199219 194.144531 161.035156 192.742188 164.929688 C 188.890625 175.648438 184.769531 186.277344 180.742188 196.933594 C 180.402344 197.84375 179.992188 198.730469 179.300781 200.375 C 178.472656 198.785156 177.769531 197.78125 177.398438 196.664062 C 172.554688 182.132812 167.75 167.585938 162.941406 153.042969 C 162.632812 152.109375 162.414062 151.144531 162.050781 150.238281 C 160.699219 146.863281 158.367188 144.53125 154.597656 144.5 C 150.921875 144.472656 148.316406 146.402344 146.914062 149.871094 C 143.390625 158.617188 139.855469 167.363281 136.300781 176.097656 C 135.117188 179 133.867188 181.875 132.367188 185.425781 C 130.152344 185.425781 127.839844 185.421875 125.53125 185.425781 C 119.828125 185.441406 114.117188 185.289062 108.421875 185.523438 C 103.882812 185.710938 101.042969 188.800781 100.9375 193.039062 C 100.839844 197.050781 103.324219 200.199219 107.363281 201.023438 C 108.507812 201.253906 109.710938 201.222656 110.886719 201.222656 C 119.34375 201.238281 127.800781 201.113281 136.253906 201.273438 C 141.28125 201.367188 144.347656 199.171875 146.105469 194.539062 C 148.328125 188.683594 150.789062 182.917969 153.597656 176.011719 C 154.824219 179.496094 155.734375 181.945312 156.554688 184.425781 C 161.246094 198.601562 165.925781 212.773438 170.574219 226.960938 C 171.765625 230.59375 173.695312 233.277344 177.914062 233.511719 C 182.046875 233.742188 184.589844 232.132812 186.332031 227.628906 C 189.582031 219.203125 192.683594 210.714844 195.847656 202.25 C 197.769531 197.113281 199.703125 191.976562 201.953125 185.964844 C 203.539062 189.0625 204.976562 191.328125 205.902344 193.789062 C 208 199.359375 211.808594 201.371094 217.742188 201.324219 C 244.683594 201.117188 271.628906 201.226562 298.574219 201.234375 C 300.535156 201.234375 302.527344 201.125 304.464844 201.382812 C 307.5 201.78125 309.632812 204.199219 309.652344 206.898438 C 309.671875 209.566406 307.5625 212.03125 304.558594 212.542969 C 303.023438 212.800781 301.421875 212.6875 299.851562 212.691406 C 288.640625 212.707031 277.433594 212.75 266.222656 212.683594 C 263.703125 212.664062 261.855469 213.230469 260.167969 215.386719 C 242.363281 238.144531 220.003906 255.667969 195.726562 270.921875 C 190.238281 274.367188 184.515625 277.449219 178.945312 280.761719 C 176.734375 282.078125 174.738281 282.253906 172.367188 280.933594 C 142.441406 264.261719 114.800781 244.695312 92.875 217.960938 C 81.394531 203.96875 72.53125 188.527344 68.871094 170.578125 C 65.296875 153.027344 66.730469 136.003906 76.460938 120.558594 C 86.371094 104.832031 101.359375 97.011719 119.546875 95.097656 C 142.109375 92.722656 158.148438 102.8125 169.410156 121.707031 C 170.515625 123.5625 171.441406 125.523438 172.402344 127.457031 C 173.269531 129.191406 174.074219 130.957031 175.421875 133.8125 Z M 175.421875 133.8125 " fill-opacity="1" fill-rule="nonzero"/></g></svg>