<svg xmlns="http://www.w3.org/2000/svg" xmlns:xlink="http://www.w3.org/1999/xlink" width="500" viewBox="0 0 375 375" height="500" preserveAspectRatio="xMidYMid meet" version="1.0">
  <defs>
    <clipPath id="sports-clip">
      <path d="M 37.5 57.2 L 342.75 57.2 L 342.75 317 L 37.5 317 Z" clip-rule="nonzero"/>
    </clipPath>
  </defs>
  <g clip-path="url(#sports-clip)">
    <!-- Simplified sports icon - football/soccer ball -->
    <circle cx="187.5" cy="187" r="120" fill="#ffffff" stroke="#000000" stroke-width="3"/>
    <path d="M 187.5 67 L 187.5 307 M 67 187 L 307 187" stroke="#000000" stroke-width="2"/>
    <path d="M 127.5 127 L 247.5 247 M 247.5 127 L 127.5 247" stroke="#000000" stroke-width="2"/>
    <path d="M 157.5 97 L 157.5 277 M 217.5 97 L 217.5 277" stroke="#000000" stroke-width="1.5"/>
    <path d="M 97 157.5 L 277 157.5 M 97 217.5 L 277 217.5" stroke="#000000" stroke-width="1.5"/>
    <circle cx="157.5" cy="157.5" r="8" fill="#000000"/>
    <circle cx="217.5" cy="157.5" r="8" fill="#000000"/>
    <circle cx="157.5" cy="217.5" r="8" fill="#000000"/>
    <circle cx="217.5" cy="217.5" r="8" fill="#000000"/>
    <circle cx="187.5" cy="187" r="15" fill="#000000"/>
  </g>
</svg>