<svg xmlns="http://www.w3.org/2000/svg" xmlns:xlink="http://www.w3.org/1999/xlink" width="500" zoomAndPan="magnify" viewBox="0 0 375 374.999991" height="500" preserveAspectRatio="xMidYMid meet" version="1.0"><defs><clipPath id="c260a936c9"><path d="M 67 77.351562 L 153 77.351562 L 153 214 L 67 214 Z M 67 77.351562 " clip-rule="nonzero"/></clipPath><clipPath id="84c997fced"><path d="M 223 144 L 309 144 L 309 280.601562 L 223 280.601562 Z M 223 144 " clip-rule="nonzero"/></clipPath></defs><path fill="#0097b2" d="M 63.394531 116.132812 L 319.6875 225.90625 L 312.882812 241.796875 L 56.585938 132.023438 Z M 63.394531 116.132812 " fill-opacity="1" fill-rule="nonzero"/><path fill="#0097b2" d="M 312.886719 244.714844 C 312.496094 244.714844 312.101562 244.636719 311.734375 244.480469 L 55.4375 134.710938 C 53.953125 134.078125 53.265625 132.359375 53.902344 130.875 L 60.707031 114.984375 C 61.011719 114.273438 61.585938 113.710938 62.308594 113.421875 C 63.027344 113.132812 63.832031 113.144531 64.546875 113.449219 L 320.84375 223.21875 C 322.328125 223.851562 323.015625 225.570312 322.378906 227.054688 L 315.574219 242.945312 C 315.269531 243.65625 314.695312 244.21875 313.972656 244.507812 C 313.625 244.648438 313.253906 244.714844 312.886719 244.714844 Z M 60.425781 130.488281 L 311.351562 237.957031 L 315.855469 227.441406 L 64.929688 119.972656 Z M 60.425781 130.488281 " fill-opacity="1" fill-rule="nonzero"/><path fill="#0097b2" d="M 105.226562 203.132812 C 102.609375 209.238281 95.542969 212.066406 89.4375 209.453125 L 77.691406 204.421875 C 71.589844 201.808594 68.757812 194.738281 71.375 188.632812 L 114.574219 87.773438 C 117.1875 81.667969 124.257812 78.839844 130.359375 81.453125 L 142.105469 86.484375 C 148.207031 89.097656 151.039062 96.167969 148.421875 102.273438 Z M 105.226562 203.132812 " fill-opacity="1" fill-rule="nonzero"/><g clip-path="url(#c260a936c9)"><path fill="#0097b2" d="M 94.164062 213.351562 C 92.140625 213.351562 90.160156 212.945312 88.285156 212.140625 L 76.542969 207.113281 C 68.964844 203.867188 65.441406 195.0625 68.6875 187.484375 L 111.882812 86.625 C 114.242188 81.117188 119.640625 77.558594 125.628906 77.558594 C 127.65625 77.558594 129.632812 77.964844 131.511719 78.769531 L 143.253906 83.796875 C 150.828125 87.042969 154.355469 95.847656 151.109375 103.425781 L 107.910156 204.285156 C 105.550781 209.792969 100.15625 213.351562 94.164062 213.351562 Z M 125.628906 83.40625 C 121.980469 83.40625 118.695312 85.574219 117.257812 88.925781 L 74.058594 189.789062 C 72.082031 194.402344 74.230469 199.761719 78.84375 201.738281 L 90.585938 206.769531 C 91.730469 207.257812 92.933594 207.503906 94.164062 207.503906 C 97.8125 207.503906 101.101562 205.335938 102.539062 201.984375 L 145.734375 101.125 C 147.710938 96.507812 145.566406 91.148438 140.953125 89.171875 L 129.207031 84.144531 C 128.0625 83.652344 126.859375 83.40625 125.628906 83.40625 Z M 125.628906 83.40625 " fill-opacity="1" fill-rule="nonzero"/></g><path fill="#0097b2" d="M 78.652344 171.636719 C 76.921875 175.683594 72.234375 177.558594 68.1875 175.828125 L 60.402344 172.492188 C 56.355469 170.757812 54.480469 166.074219 56.210938 162.023438 L 84.847656 95.160156 C 86.582031 91.113281 91.269531 89.242188 95.316406 90.972656 L 103.101562 94.308594 C 107.148438 96.039062 109.023438 100.726562 107.289062 104.773438 Z M 78.652344 171.636719 " fill-opacity="1" fill-rule="nonzero"/><path fill="#0097b2" d="M 71.320312 179.394531 C 69.84375 179.394531 68.402344 179.097656 67.035156 178.511719 L 59.25 175.179688 C 53.730469 172.816406 51.160156 166.398438 53.527344 160.875 L 82.164062 94.011719 C 83.882812 89.996094 87.8125 87.40625 92.179688 87.40625 C 93.65625 87.40625 95.097656 87.703125 96.464844 88.289062 L 104.253906 91.621094 C 106.925781 92.765625 108.996094 94.886719 110.078125 97.589844 C 111.160156 100.289062 111.125 103.25 109.976562 105.925781 L 81.339844 172.789062 C 79.621094 176.800781 75.6875 179.394531 71.320312 179.394531 Z M 92.179688 93.25 C 90.15625 93.25 88.335938 94.453125 87.535156 96.3125 L 58.902344 163.175781 C 57.804688 165.734375 58.996094 168.710938 61.554688 169.804688 L 69.339844 173.140625 C 69.972656 173.414062 70.640625 173.550781 71.324219 173.550781 C 73.347656 173.550781 75.171875 172.347656 75.96875 170.488281 L 104.605469 103.625 C 105.132812 102.386719 105.152344 101.011719 104.652344 99.761719 C 104.148438 98.507812 103.191406 97.527344 101.949219 96.996094 L 94.164062 93.660156 C 93.53125 93.390625 92.863281 93.25 92.179688 93.25 Z M 92.179688 93.25 " fill-opacity="1" fill-rule="nonzero"/><path fill="#0097b2" d="M 227.859375 255.65625 C 225.246094 261.761719 228.074219 268.828125 234.179688 271.445312 L 245.921875 276.476562 C 252.027344 279.089844 259.09375 276.261719 261.707031 270.15625 L 304.90625 169.292969 C 307.519531 163.1875 304.691406 156.121094 298.585938 153.507812 L 286.84375 148.476562 C 280.738281 145.859375 273.667969 148.691406 271.054688 154.796875 Z M 227.859375 255.65625 " fill-opacity="1" fill-rule="nonzero"/><g clip-path="url(#84c997fced)"><path fill="#0097b2" d="M 250.648438 280.371094 C 248.625 280.371094 246.644531 279.964844 244.769531 279.160156 L 233.027344 274.128906 C 229.355469 272.558594 226.519531 269.652344 225.035156 265.945312 C 223.550781 262.238281 223.597656 258.175781 225.171875 254.507812 L 268.371094 153.644531 C 270.730469 148.136719 276.125 144.578125 282.117188 144.578125 C 284.140625 144.578125 286.121094 144.988281 287.996094 145.789062 L 299.738281 150.820312 C 307.3125 154.0625 310.839844 162.867188 307.59375 170.445312 L 264.398438 271.308594 C 262.039062 276.8125 256.640625 280.371094 250.648438 280.371094 Z M 282.117188 150.425781 C 278.46875 150.425781 275.179688 152.59375 273.742188 155.949219 L 230.546875 256.808594 C 229.589844 259.042969 229.558594 261.515625 230.460938 263.773438 C 231.367188 266.03125 233.09375 267.800781 235.332031 268.757812 L 247.074219 273.789062 C 248.21875 274.277344 249.421875 274.527344 250.652344 274.527344 C 254.300781 274.527344 257.585938 272.359375 259.023438 269.007812 L 302.222656 168.144531 C 304.195312 163.53125 302.050781 158.171875 297.4375 156.195312 L 285.695312 151.164062 C 284.550781 150.671875 283.347656 150.425781 282.117188 150.425781 Z M 282.117188 150.425781 " fill-opacity="1" fill-rule="nonzero"/></g><path fill="#0097b2" d="M 268.988281 253.15625 C 267.257812 257.203125 269.132812 261.890625 273.179688 263.621094 L 280.964844 266.957031 C 285.011719 268.691406 289.695312 266.8125 291.429688 262.765625 L 320.066406 195.90625 C 321.800781 191.859375 319.925781 187.171875 315.878906 185.4375 L 308.089844 182.105469 C 304.042969 180.371094 299.359375 182.246094 297.625 186.292969 Z M 268.988281 253.15625 " fill-opacity="1" fill-rule="nonzero"/><path fill="#0097b2" d="M 284.097656 270.523438 C 282.621094 270.523438 281.179688 270.230469 279.8125 269.644531 L 272.027344 266.308594 C 266.507812 263.945312 263.9375 257.527344 266.300781 252.003906 L 294.9375 185.140625 C 296.65625 181.125 300.589844 178.535156 304.957031 178.535156 C 306.433594 178.535156 307.875 178.832031 309.242188 179.417969 L 317.027344 182.753906 C 319.703125 183.898438 321.773438 186.015625 322.855469 188.71875 C 323.933594 191.421875 323.898438 194.382812 322.753906 197.054688 L 294.117188 263.917969 C 292.398438 267.929688 288.464844 270.523438 284.097656 270.523438 Z M 304.957031 184.378906 C 302.933594 184.378906 301.109375 185.582031 300.3125 187.441406 L 271.675781 254.304688 C 270.582031 256.863281 271.769531 259.839844 274.332031 260.9375 L 282.113281 264.269531 C 282.75 264.542969 283.417969 264.679688 284.097656 264.679688 C 286.121094 264.679688 287.945312 263.476562 288.742188 261.617188 L 317.378906 194.753906 C 317.910156 193.511719 317.925781 192.144531 317.425781 190.890625 C 316.925781 189.636719 315.964844 188.65625 314.726562 188.125 L 306.941406 184.792969 C 306.304688 184.519531 305.636719 184.378906 304.957031 184.378906 Z M 304.957031 184.378906 " fill-opacity="1" fill-rule="nonzero"/><path fill="#0097b2" d="M 137.304688 84.421875 L 142.679688 86.722656 L 90.011719 209.691406 L 84.636719 207.386719 Z M 137.304688 84.421875 " fill-opacity="1" fill-rule="nonzero"/><path fill="#0097b2" d="M 99.402344 92.722656 L 104.777344 95.023438 L 69.863281 176.542969 L 64.488281 174.242188 Z M 99.402344 92.722656 " fill-opacity="1" fill-rule="nonzero"/><path fill="#0097b2" d="M 287.910156 148.917969 L 293.285156 151.21875 L 240.617188 274.183594 L 235.242188 271.882812 Z M 287.910156 148.917969 " fill-opacity="1" fill-rule="nonzero"/><path fill="#0097b2" d="M 308.035156 182.074219 L 313.410156 184.375 L 278.496094 265.894531 L 273.121094 263.589844 Z M 308.035156 182.074219 " fill-opacity="1" fill-rule="nonzero"/></svg>