<svg xmlns="http://www.w3.org/2000/svg" xmlns:xlink="http://www.w3.org/1999/xlink" width="500" zoomAndPan="magnify" viewBox="0 0 375 374.999991" height="500" preserveAspectRatio="xMidYMid meet" version="1.0"><defs><clipPath id="dbb953e6c4"><path d="M 67 121.265625 L 308 121.265625 L 308 222 L 67 222 Z M 67 121.265625 " clip-rule="nonzero"/></clipPath></defs><g clip-path="url(#dbb953e6c4)"><path fill="#0097b2" d="M 74.917969 221.332031 L 86.8125 221.332031 C 87.222656 221.332031 87.632812 220.921875 87.632812 220.921875 C 92.554688 212.3125 101.578125 206.570312 111.832031 206.570312 C 122.492188 206.570312 131.515625 212.3125 136.4375 220.921875 C 136.4375 220.921875 136.847656 221.332031 137.257812 221.332031 L 233.636719 221.332031 C 234.046875 221.332031 234.457031 220.921875 234.457031 220.921875 C 239.378906 212.3125 248.398438 206.570312 258.652344 206.570312 C 269.316406 206.570312 278.339844 212.3125 283.261719 220.921875 C 283.261719 220.921875 283.671875 221.332031 284.082031 221.332031 L 303.765625 221.332031 C 305.816406 221.332031 307.457031 219.691406 307.457031 217.644531 L 307.457031 195.90625 C 307.457031 193.035156 306.636719 190.574219 305.40625 188.113281 L 285.722656 150.382812 C 282.441406 143.820312 275.878906 139.71875 268.496094 139.71875 L 230.765625 139.71875 C 227.894531 139.71875 225.84375 141.769531 225.84375 144.640625 L 225.84375 194.265625 C 225.84375 196.726562 223.792969 199.1875 221.332031 199.1875 C 218.460938 199.1875 216.410156 196.726562 216.410156 194.265625 L 216.410156 128.648438 C 216.410156 124.546875 213.128906 121.265625 209.027344 121.265625 L 74.917969 121.265625 C 70.820312 121.265625 67.539062 124.546875 67.539062 128.648438 L 67.539062 213.953125 C 67.539062 218.054688 70.820312 221.332031 74.917969 221.332031 Z M 268.085938 185.652344 L 274.238281 192.214844 C 275.46875 193.855469 277.109375 194.265625 279.160156 194.265625 L 295.5625 194.265625 C 295.972656 194.265625 295.972656 194.265625 296.382812 193.855469 C 296.382812 193.445312 296.382812 193.035156 296.382812 193.035156 L 279.570312 160.636719 C 275.878906 154.074219 269.726562 149.972656 261.933594 149.972656 L 240.199219 149.972656 C 238.148438 149.972656 236.097656 151.613281 236.097656 153.664062 L 236.097656 177.859375 C 236.097656 179.910156 238.148438 181.960938 240.199219 181.960938 L 258.652344 181.960938 C 262.34375 181.960938 265.214844 183.191406 268.085938 185.652344 Z M 268.085938 185.652344 " fill-opacity="1" fill-rule="evenodd"/></g><path fill="#0097b2" d="M 306.226562 231.585938 C 305.816406 236.097656 301.714844 239.789062 297.203125 239.789062 L 286.542969 239.789062 C 286.953125 238.148438 286.953125 236.507812 286.953125 234.867188 C 286.953125 233.636719 286.953125 231.996094 286.542969 230.355469 C 293.101562 230.355469 299.253906 230.355469 305.40625 230.355469 C 305.816406 230.355469 305.816406 230.765625 306.226562 230.765625 C 306.226562 231.175781 306.226562 231.175781 306.226562 231.585938 Z M 229.945312 239.789062 L 140.949219 239.789062 C 140.539062 239.789062 140.128906 239.789062 140.128906 239.378906 C 140.128906 239.378906 139.71875 238.96875 139.71875 238.558594 C 140.128906 237.328125 140.128906 236.097656 140.128906 234.867188 C 140.128906 233.636719 140.128906 232.816406 140.128906 231.585938 C 139.71875 231.175781 140.128906 231.175781 140.128906 230.765625 C 140.539062 230.765625 140.539062 230.355469 140.949219 230.355469 L 229.945312 230.355469 C 230.355469 230.355469 230.355469 230.765625 230.765625 230.765625 C 230.765625 231.175781 230.765625 231.175781 230.765625 231.585938 C 230.765625 232.816406 230.765625 233.636719 230.765625 234.867188 C 230.765625 236.097656 230.765625 237.328125 230.765625 238.558594 C 230.765625 238.96875 230.765625 239.378906 230.765625 239.378906 C 230.355469 239.789062 230.355469 239.789062 229.945312 239.789062 Z M 84.351562 239.789062 L 76.96875 239.789062 C 72.046875 239.789062 67.949219 236.097656 67.539062 231.585938 C 67.539062 231.175781 67.539062 231.175781 67.949219 230.765625 C 67.949219 230.765625 68.359375 230.355469 68.359375 230.355469 L 83.941406 230.355469 C 83.941406 231.996094 83.941406 233.636719 83.941406 234.867188 C 83.941406 236.507812 83.941406 238.148438 84.351562 239.789062 Z M 84.351562 239.789062 " fill-opacity="1" fill-rule="evenodd"/><path fill="#0097b2" d="M 111.832031 216.003906 C 122.492188 216.003906 131.105469 224.613281 131.105469 234.867188 C 131.105469 245.53125 122.492188 253.734375 111.832031 253.734375 C 101.578125 253.734375 92.964844 245.53125 92.964844 234.867188 C 92.964844 224.613281 101.578125 216.003906 111.832031 216.003906 Z M 111.832031 225.433594 C 117.160156 225.433594 121.671875 229.535156 121.671875 234.867188 C 121.671875 240.199219 117.160156 244.710938 111.832031 244.710938 C 106.5 244.710938 102.398438 240.199219 102.398438 234.867188 C 102.398438 229.535156 106.5 225.433594 111.832031 225.433594 Z M 111.832031 225.433594 " fill-opacity="1" fill-rule="evenodd"/><path fill="#0097b2" d="M 258.652344 216.003906 C 269.316406 216.003906 277.929688 224.613281 277.929688 234.867188 C 277.929688 245.53125 269.316406 253.734375 258.652344 253.734375 C 248.398438 253.734375 239.789062 245.53125 239.789062 234.867188 C 239.789062 224.613281 248.398438 216.003906 258.652344 216.003906 Z M 258.652344 225.433594 C 263.984375 225.433594 268.496094 229.535156 268.496094 234.867188 C 268.496094 240.199219 263.984375 244.710938 258.652344 244.710938 C 253.730469 244.710938 249.21875 240.199219 249.21875 234.867188 C 249.21875 229.535156 253.730469 225.433594 258.652344 225.433594 Z M 258.652344 225.433594 " fill-opacity="1" fill-rule="evenodd"/></svg>
